<?xml version="1.0" encoding="UTF-8" standalone="no"?>
<svg
   xmlns:dc="http://purl.org/dc/elements/1.1/"
   xmlns:cc="http://creativecommons.org/ns#"
   xmlns:rdf="http://www.w3.org/1999/02/22-rdf-syntax-ns#"
   xmlns:svg="http://www.w3.org/2000/svg"
   xmlns="http://www.w3.org/2000/svg"
   viewBox="0 0 931.37335 931.38666"
   height="931.38666"
   width="931.37335"
   xml:space="preserve"
   id="svg2"
   version="1.1"><metadata
     id="metadata8"><rdf:RDF><cc:Work
         rdf:about=""><dc:format>image/svg+xml</dc:format><dc:type
           rdf:resource="http://purl.org/dc/dcmitype/StillImage" /></cc:Work></rdf:RDF></metadata><defs
     id="defs6" /><g
     transform="matrix(1.3333333,0,0,-1.3333333,0,931.38667)"
     id="g10"><g
       transform="scale(0.1)"
       id="g12"><path
         id="path14"
         style="fill:#ffffff;fill-opacity:1;fill-rule:nonzero;stroke:none"
         d="M 3492.58,6985.38 C 1563.74,6985.38 0,5421.64 0,3492.89 0,1563.91 1563.74,0 3492.58,0 5421.5,0 6985.25,1563.91 6985.25,3492.89 c 0,1928.75 -1563.75,3492.49 -3492.67,3492.49" /><path
         id="path16"
         style="fill:#e51636;fill-opacity:1;fill-rule:nonzero;stroke:none"
         d="m 2777.7,3415.59 c -14.43,-42.08 -25.01,-72.52 -38.48,-121.31 l -47.26,-15.6 c -24.57,66.36 -45.92,124.52 -69.04,196.36 0,0 13.98,4.41 34.07,9.24 20.8,4.94 26.9,6.72 36.86,6.46 l 37.84,-115.96 c 1.99,-5.91 3.23,-4.58 5.2,1.87 14.26,45.92 20.09,65.57 36.78,127.8 0,0 19.46,6.47 30.67,8.8 20,3.85 25.19,3.85 34.26,4.57 l 27.53,-109.23 c 1.43,-3.86 1.43,-6.45 3.86,3.67 12.46,48.34 31.83,118.82 31.83,118.82 6.37,2.79 13.19,3.34 21.52,5.67 6.83,2.06 14.54,2.59 15.89,0.97 -16.24,-52.36 -42.96,-134.52 -63.96,-205.58 l -56.94,-12.56 -31.84,96.81 c -2.24,4.57 -7.45,4.94 -8.79,-0.8 z m -169.41,-530.98 c -15.06,-17.04 -28.33,-21.7 -49.51,-25.47 -34.25,-6.1 -58.65,13.45 -57.66,40.72 1.25,36.41 8.88,54.7 60.27,79.28 4.48,1.96 34.43,17.21 46.44,23.12 3.42,1.62 4.4,11.49 4.4,17.05 0,20.28 -9.31,29.77 -28.69,29.77 -30.76,0 -40.18,-24.02 -43.41,-37.84 l -21.98,-0.35 c -1.69,5.91 3.42,18.82 5.3,23.67 6.72,16.15 33.46,46.81 77.58,50.22 48.15,3.95 73.63,-19.91 73.63,-61.7 l -2.33,-89.34 c 0.63,-27.43 26.09,-11.47 27.07,-10.93 l 6.38,-6.28 c -0.55,-9.69 -12.91,-29.6 -48.97,-33.71 -24.93,-2.87 -30.59,1.79 -39.1,4.66 -4.04,3.05 -9.42,-2.87 -9.42,-2.87 z m 1309.48,851.05 c -10.5,1 -21.07,-3.39 -31.48,-3.39 -10.67,0 -21.08,-6.92 -31.66,-7.82 v 316.86 c 10.58,-0.9 20.09,3.31 30.67,3.31 10.59,0 21.97,0 32.47,0.8 z m -701.68,286.46 c 10.58,-0.72 23.85,-0.37 34.42,-0.37 10.69,0 19.11,-3.76 37.5,-7.97 -5.57,-95.07 -2.07,-239.91 0,-307.8 -17.67,2.59 -23.68,3.85 -37.5,4.85 -10.57,0 -23.84,-0.83 -34.42,0 2.04,67.89 5.73,216.32 0,311.29 z m 229.22,-1068.63 c -0.63,-41.79 11.12,-56.87 47.27,-56.87 l -0.54,-21.35 c -14.8,-5.92 -37.93,-1.78 -57.75,2.87 -45.66,10.41 -55.17,36.23 -55.17,75.17 v 127.88 l -27.26,6.47 c 1.17,9.67 1.17,17.21 0,26.89 l 27.26,-5.55 v 46.82 c -5.64,-0.37 68.07,9.5 66.19,8.41 v -72.09 l 38.21,-9.68 c -1.16,-9.69 -1.16,-18.3 0,-27.99 l -38.21,6.27 z m 747.61,15.24 c -14.17,-7.53 -44.93,-13.45 -66.54,-11.83 -69.32,4.83 -112.57,46.45 -112.57,107.26 0,66.53 34.63,116.93 100.28,112.82 35.89,-2.15 60.71,-13.47 80.53,-27.98 l -5.65,-51.67 -10.31,2.16 c -0.27,14.17 -13.09,43.59 -51.2,43.42 -37.22,-0.37 -46.47,-39.83 -47.81,-76.25 1,-43.4 18.03,-70.49 59.29,-81.26 17.13,-4.48 48.34,-3.76 57.84,3.42 z m -299.01,131.48 c 0,20.26 -9.05,29.22 -28.33,29.22 -30.95,0 -40.11,-24.01 -43.41,-38.01 h -20.9 c -0.99,8.07 2.25,18.66 4.29,23.5 6.47,15.96 33.48,46.81 77.5,50.4 48.07,3.59 73.81,-20.09 73.81,-62.06 0.09,-2.52 0.36,-5.37 0.36,-8.08 l -1.8,-84.29 c 0,-15.61 -0.72,-25.49 27.45,-22.97 l 2.34,-4.48 c -0.54,-9.68 -15.62,-26.54 -48.9,-26.54 -11.64,0 -33.07,6.09 -34.87,9.86 -1.71,3.23 -4.32,1.43 -7.89,-3.77 -3.41,-5.02 -24.03,-21.35 -51.76,-23.67 -51.21,-1.1 -58.02,23.67 -58.82,41.78 -1.89,42.69 27.09,70.15 71.19,85.03 10.15,3.58 23.25,7.17 35.89,13.63 4.75,2.52 4.57,12.92 3.85,20.45 z m -107.63,217.93 c -19.19,-20.63 -28.41,-22.6 -49.5,-27.97 -33.53,-7.53 -58.19,5.2 -57.04,38.92 1.45,38.52 12.38,52.41 59.65,80.84 4.31,2.33 34.53,20.1 46.46,26.1 6.19,3.05 4.31,11.13 4.31,17.22 0,20.28 -9.25,29.5 -28.52,29.5 -30.95,0 -40.09,-24.04 -43.59,-38.01 h -21.09 c -1.24,6.99 2.61,18.65 4.68,23.57 6.46,15.97 33.44,46.73 77.49,50.41 48.07,3.49 73.53,-19.91 73.53,-61.8 l -2.33,-89.67 c 0.63,-27.06 26.9,-12.12 27.81,-11.84 l 5.63,-5.12 c -0.51,-9.73 -12.98,-27.49 -48.96,-31.62 -25.02,-2.67 -30.58,-0.53 -39.01,2.7 -4.2,3.04 -9.52,-3.23 -9.52,-3.23 z m 324.95,239.5 c -0.1,2.06 23.32,-2.6 32.71,-4.57 16.15,-3.94 21.17,-4.23 33.56,-8.08 l 0.17,-23.67 c 20.9,13.64 36.33,24.76 89.25,7.17 22.59,-7.71 39.01,-42.95 39.01,-95.06 l 1.33,-128.21 c -11.55,3.24 -22.5,6.46 -31.75,9.15 -9.95,2.88 -20.17,3.58 -31.64,6.27 l 1.44,94.4 c 0,39.11 1.96,83.41 -30.24,85.56 -36.32,2.07 -36.41,-41.61 -36.41,-67.98 l 1.43,-95.28 c -12.72,3.94 -29.59,6.44 -39.11,8.25 -10.49,2.33 -19.45,-0.72 -29.75,0.52 3.32,46.06 3.32,131.45 0,211.53 z m -979.81,390.75 c -1.79,-1.17 -4.94,1 -5.92,2.44 -15.69,22.05 -36.95,37.12 -87.17,37.12 -51.29,-0.46 -97.49,-60.35 -95.88,-137.57 1.35,-72.66 38.84,-99.75 96.33,-99.55 20.89,0 35.43,5.72 45.46,11.64 l -0.89,92.66 c 10.49,-0.89 20.8,0.37 31.29,0 17.23,-0.89 25.3,-2.51 35.71,-1.62 v -116.85 c -8.27,0.7 -76.95,-14.44 -120.82,-14.44 -115.41,-0.38 -162.31,37.12 -162.22,128.06 0.08,98.11 80.42,168.52 177.11,168.52 35.97,0 67.26,-11.83 98.29,-27.89 z m 328.16,-283.3 c -4.41,6.99 -4.41,5.11 -14,0 -9.6,-5.21 -15.43,-8.7 -32.64,-8.7 -28.79,2.5 -70.77,27.81 -73.73,71.2 -1.87,27.63 16.06,43.67 32.29,48.53 14.62,4.22 28.53,4.73 55.97,6.45 8.43,0.53 18.74,0.36 20.44,2.96 1.71,5.11 1.44,13.82 1.63,17.5 1.15,15.32 -4.31,29.04 -26.29,36.4 -21.26,7.27 -43.59,-3.87 -50.05,-15.07 l -21.52,8.33 c 8.25,23.41 42.43,42.87 73.98,38.67 71.14,-9.42 85.48,-54.62 85.48,-84.58 v -106.46 c 0,-15.51 6.64,-20.61 22.87,-25.02 4.14,-0.97 3.68,-8.34 -0.45,-8.51 -27.79,-10.58 -39.1,-6.27 -53.1,0.54 -5.81,3.14 -16.58,10.84 -20.88,17.76 z m 258.29,220.35 v 120.44 c 11.75,4.22 23.68,8.07 32.91,10.76 12.92,3.78 19.91,5.48 33.18,7.09 l 0.18,-313.44 c -15.06,-6.73 -24.2,-9.25 -31.04,-12.38 -11.38,-5.38 -23.21,-10.04 -33.16,-14.26 l -0.54,18.11 c -14.98,-19.54 -39.57,-34.89 -49.51,-38.03 -24.57,-8.14 -95.97,-37.66 -95.25,96.69 0.36,68.25 45.29,112.55 91.29,118.55 11.49,1.53 28.79,5.58 48.44,-4.28 3.94,-1.89 3.94,2.42 3.5,10.75 z m 604.02,-769.28 c -0.09,-7.35 2.52,-5.55 5.28,-3.04 2.62,2.87 7.9,13.28 34.46,13.81 36.05,-0.53 57.83,-23.13 71.11,-41.79 12.65,-17.4 17.57,-32.65 17.57,-53.08 v -142.8 c -14.15,4.14 -26.37,7.9 -37.21,11.12 -9.24,2.71 -18.76,5.03 -31.65,5.58 v 95.77 c 0,39.1 6.81,84.84 -34.45,85.56 -26.81,0.91 -25.2,-31.75 -25.2,-58.65 v -97.57 c -9.69,0.71 -26.27,10.57 -35.97,10.57 -9.49,0 -20.53,4.68 -30.2,3.95 v 319.64 c 9.67,-0.89 20.89,-3.05 33.16,-4.85 10.42,-1.62 17.41,-6.83 33.01,-9.49 0.09,-25.83 0.27,-127.18 0.09,-134.73 z M 3155.46,2988.82 c 0,0 -0.91,6.99 -6.29,0 0,0 -16.49,-9.87 -33.27,-10.94 -26.89,-6.99 -120.7,10.4 -113,114.8 5.83,77.85 61.71,96.86 83.41,97.2 26.28,0.19 44.65,-5.74 59.55,-22.77 5.12,-5.92 8.69,-9.86 8.78,0.36 v 116.4 c 0.54,3.96 3.87,3.6 8.07,3.05 5.48,-0.52 17.67,-1.24 25.57,-3.56 9.25,-2.36 14.08,-1.27 28.24,-7.9 v -303.51 c -15.23,2.16 -20.34,3.22 -30.31,4.48 -12.46,1.45 -20.71,1.45 -30.94,3.25 0,0 1,4.84 0.19,9.14 z m -409.95,119.64 c 8.51,2.32 17.13,10.58 26.27,13.44 7.89,2.51 20.99,7.19 32.11,9.52 l 5.29,-18.85 c 38.65,46.11 68.88,60.28 104.31,46.3 30.76,-11.67 29.41,-52.21 29.41,-102.44 v -92.01 c -15.34,-3.22 -22.95,-4.66 -33.9,-6.81 -13.1,-3.59 -22.87,-8.79 -32.55,-9.51 l 0.8,78.56 c 0,38.93 -1.26,83.06 -30.49,83.06 -36.42,0 -36.05,-44.67 -36.05,-71.05 l 0.17,-108.69 c -11.29,-1.44 -25.46,-4.65 -34.71,-6.99 -11.29,-2.16 -18.65,-5.74 -31.47,-9.5 z M 4002.7,3518.9 c 6.55,23.22 26.83,41.35 65.64,41.35 -2.06,-19.56 -5.1,-38.21 -6.71,-61.98 l -3.77,-3.31 c -5.37,3.49 -15.88,4.38 -25.02,4.38 -18.48,0.2 -25.75,-7.35 -30.77,-25.38 -3.76,-12.1 -2.5,-34.88 -2.5,-48.25 l 2.95,-79.77 c -12.38,-0.35 -23.94,-0.35 -35.43,-2.16 -11.83,-1.79 -23.49,-5.37 -33,-6.44 l -2.34,211.5 c 10.61,-0.43 20.46,0.83 30.06,2.35 11.75,1.88 24.12,2.05 33.73,2.76 l 0.08,-36.13 c 0,-7.45 3.31,-8.16 7.08,1.08 z m -395.51,-549.98 c 0,0 -16.77,-50.23 43.33,-50.23 29.77,0 58.11,28.69 72.64,43.76 l 0.09,-29.05 c -21.44,-28.54 -40.72,-51.84 -94.53,-65.66 -74.53,-19.36 -94.16,39.1 -90.57,100.45 2.95,53.45 34.42,107.26 103.75,129.7 77.84,25.63 96.05,-26.03 91.84,-80.02 -69.05,-26.35 -78.11,-29.77 -126.55,-48.95 z m -93.35,383.96 c 0,0 -1.09,-69.18 50.4,-69.18 32.29,-2.16 49.51,7.71 63.75,17.03 3.52,2.71 10.69,1.82 9.87,-2.86 -2.13,-13.45 -6.99,-19.75 -14.52,-27.45 -8.25,-7.34 -28.16,-24.56 -66.11,-25.11 -69.41,-0.35 -117.11,64.94 -115.96,121.21 1.35,64.76 39.83,100.55 97.31,100.55 64.85,0 106.91,-42.43 101.53,-112.74 -70.32,-3.32 -126.27,-1.45 -126.27,-1.45 z m -184.75,267.01 c 11.74,-2.07 21.15,-4.3 32.73,-6.92 11.3,-2.86 18.82,-5.46 34.43,-11.2 -6.01,-137.32 -6.18,-173.98 0,-321.29 0,0 -27.08,12.91 -38.65,16.49 -9.23,2.88 -35.78,10.95 -35.78,10.95 2.96,148.47 4.31,169.46 -1.89,310.26 1.61,2.23 6.1,2.23 9.16,1.71 z m -281.43,-163.14 c -3.87,-0.36 -3.87,-2.6 -4.05,-8.33 -1.07,-28.45 18.05,-54.54 53.82,-60.74 16.86,-2.87 50.85,4.49 66.8,13.9 l -6.09,-28.07 c -9.86,-7.16 -20.18,-11.37 -33.1,-14.7 -22.05,-6.47 -45.72,-3.68 -58.1,-2.59 -60.71,5.12 -86.74,51.12 -86.37,98.12 0.35,58.64 31.84,109.76 92.64,109.76 84.22,0 104.3,-52.73 99.72,-112.56 -42.23,4.85 -100.35,7.17 -125.27,5.21 z m 1045.34,390.22 37.68,96.86 c 10.3,-0.63 13.09,-1.45 13.9,-1.45 5.83,0 20.63,-1.16 32.38,-2.95 l -59.91,-122.15 c -31.03,-70.33 -49.33,-111.66 -76.15,-184.49 -5.82,0.82 -19.64,0 -25.48,0 -5.9,0 -21.95,-2.6 -21.95,-2.6 l 58.47,117.13 -82.86,200.53 c 10.84,3.59 28.59,2.87 39.1,2.87 10.49,0 36.4,-1.07 36.4,-1.07 10.58,-30.14 32.73,-95.7 32.73,-95.7 6.1,-12.36 6.56,-23.22 15.69,-6.98 z m -798.62,266.27 c -282.95,92.02 -575.06,-83.4 -764.74,-89.51 -149.51,-4.93 -306.64,32.21 -306.64,32.21 l 2.34,-1470.7 c 0,0 120.45,27.26 201.6,59.36 347.27,137.59 680.26,140.11 808.95,103.33 128.63,-36.94 274.45,-134.35 274.45,-134.35 0,0 145.91,97.41 274.42,134.35 128.7,36.78 461.71,34.26 809.14,-103.33 80.9,-32.1 203.6,-62.77 203.6,-62.77 l 0.25,1474.11 c 0,0 -157.11,-37.14 -306.72,-32.21 -189.58,6.11 -481.78,181.53 -764.65,89.51 -103.67,-33.73 -191.38,-92.56 -216.04,-109.94 -21.09,15.23 -108.88,75.22 -215.96,109.94 z M 2581.47,2964.6 c -12.28,-9.51 -23.32,-20.98 -20.62,-44.13 1.7,-13.98 8.34,-18.64 19.36,-16.5 19.11,3.6 27.82,19.37 27.54,39.49 -1.16,44.46 -4.03,38.38 -26.28,21.14 z m 1285.18,84.3 c -7.36,-4.12 -22.78,-18.1 -24.22,-41.61 -0.8,-13.8 5.66,-26.19 19.82,-23.85 23.51,3.94 28.97,16.32 31.66,37.67 1.71,32.1 -0.62,43.23 -27.26,27.79 z m -105.01,351.17 c -10.95,-8.98 -25.47,-22.7 -22.34,-48.53 1.7,-15.47 8.79,-21.03 20.98,-18.51 21.26,3.77 30.95,21.12 30.41,43.81 -1.16,49.32 -4.32,43.69 -29.05,23.23 z m -336.78,358.29 c -10.94,-2.61 -26.63,-17.13 -24.83,-41.61 0.98,-12.66 11.39,-26.11 22.87,-26.63 14.89,-0.56 23.68,5.2 23.85,31.72 1.16,35.44 -2.6,41.18 -21.89,36.52 z m 212.29,32.55 c -2.78,-27.7 -0.9,-48.07 6.01,-71.57 4.83,-10.4 7.63,-17.21 16.59,-21.98 8.16,-1.53 8.88,-1.53 18.2,0 12.2,5.48 19.38,11.95 26.36,21.98 6.11,10.85 15.89,30.94 15.89,55.07 1.52,23.5 -1.26,38.92 -5.48,54.89 -4.83,9.68 -7.63,16.6 -16.5,21.52 -11.55,1.97 -22.06,1.17 -33.01,-5.02 -3.76,-2.69 -13.89,-12.65 -16.58,-16.5 -4.86,-11.49 -8.7,-20.54 -11.48,-38.39 z m -563.66,-721.38 c 0,-21.52 1.33,-53.27 43.21,-53.81 37.41,-0.53 34.8,46.12 34.8,71.39 0,34.08 -5.11,69.6 -39.1,69.41 -41.06,-0.7 -38.91,-61.88 -38.91,-86.99 z m 593.88,-47.89 c 6.91,28.69 -7.17,62.61 -31.04,54.35 -26.72,-9.14 -28.87,-44.13 -29.4,-55.41 -1.26,-21.35 1.96,-23.33 18.48,-15.8 9.22,4.3 41.96,16.86 41.96,16.86 z m -148.42,359.86 h 57.47 c 2.71,-0.81 3.68,5.66 3.68,5.66 0,18.28 -6.98,52.46 -32.01,52.72 -30.76,0.27 -33.45,-35.68 -34.08,-54.15 0.35,-5.04 4.94,-4.23 4.94,-4.23 z m -471.12,104.93 h 65.65 c 2.34,0.72 2.34,1.69 2.51,5.38 0.89,14.7 -9.68,54.27 -33.53,54.27 -28.53,0 -36.43,-34.9 -37.24,-57.04 2.61,-2.61 -0.26,-3.5 2.61,-2.61 z m 703.57,729.86 c 21.98,5.72 45.48,10.49 70.51,14.43 l 8.42,93.28 57.32,0.9 c 62.32,-2.24 64.47,110.3 9.32,112.46 0,0 -194.44,0 -387.09,0 -192.45,0 -386.97,0 -386.97,0 -55.16,-2.16 -52.92,-114.7 9.4,-112.46 l 57.32,-0.9 8.33,-93.28 c 24.85,-3.94 48.44,-8.71 70.23,-14.34 l 0.36,109.67 h 40.89 l 0.72,-122.6 c 19.37,-6.27 35.06,-11.66 51.66,-18.65 v 141.25 h 40.89 l -0.18,-160.25 c 72.12,-36.77 107.35,-73.37 107.35,-73.37 0,0 35.43,36.6 107.37,73.37 v 160.25 h 40.89 l 0.09,-141.16 c 16.23,6.9 33.73,13.36 52.63,19.37 l -0.35,121.79 h 40.89 z m -251.29,1185.53 c 121.62,0 240.27,-13.45 355.51,-35.23 l -4.12,-856.22 40.17,-0.92 43.76,842.05 c 52.75,-12.18 105.47,-29.04 156.42,-45.48 l 24.31,-982.75 h 27.98 l 56.49,943.76 c 51.75,-20.37 103.14,-45.11 152.74,-69.87 l 19.28,-873.89 h 41.97 l 51.84,812.46 c 47.98,-28.25 94.52,-60.09 139.46,-92.38 l 13.89,-720.08 h 71.04 l 46.1,618.29 c 42.52,-36.24 82.6,-75.77 121.8,-115.6 l 8.7,-502.69 h 100.97 l 20.45,355.16 c 29.69,-37.22 57.21,-77.39 84.13,-116.69 l -0.81,-238.47 140.08,1 c 121.97,-249.14 190.58,-527.7 190.58,-825.28 0,-390.53 -117.92,-753.94 -319.82,-1055.99 l -0.26,1248.44 H 4940.43 L 4939.11,2431.7 H 4783.4 c -174.71,103.12 -828.49,476.58 -1272.43,95.24 -443.77,381.34 -1097.74,7.88 -1272.27,-95.24 h -166.18 v 1259.74 h -141.08 l -0.17,-1267.47 -1.63,0.56 c -209.67,305.81 -332.36,676.03 -332.36,1074.46 0,295.77 67.89,575.05 188.16,824.65 l 171.65,-0.37 -0.99,285.83 c 37.76,52.56 79.64,103.05 122.33,151.3 l 9.16,-437.13 h 107.34 l 50.05,604.75 0.72,0.46 c 29.68,26.35 61.34,51.47 92.73,75.68 l 14.98,-680.89 h 58.2 l 50.85,768.87 c 46.01,30.22 93.82,57.13 142.6,83.5 l 14.17,-852.37 h 50.05 l 28.25,898.46 c 54.97,25.85 111.2,49.87 169.06,70.58 l 13.88,-969.04 h 32.56 l 27.81,993.17 c 54.53,16.94 110.21,31.39 166.82,43.42 l 3.93,-525.74 c -13.45,-35.88 -27.44,-86.37 -26.63,-137.57 3.04,-68.08 23.24,-141.44 72.47,-186.64 h 200.45 c -95.7,123.67 -42.43,339.27 75.51,393.35 -7,-28.06 -17.49,-134.42 50.32,-198.38 50.3,-47.52 75.42,-130.75 28.24,-195.24 l 245.19,0.27 c 32.56,58.12 94.89,210.31 -39.72,343.76 -85.91,85.21 -87.36,263.5 -87.36,263.5 -37.4,0 -156.32,-85.92 -159.46,-145.83 0,0 -2.69,186.89 78.93,298.65 18.74,25.83 -47.98,27.26 -158.11,-64.39 l -0.46,191.56 c 35.79,2.16 72.92,4.66 109.15,4.66 m -345.47,-478.37 2.06,445.38 c 66.83,12.46 134.9,20.8 203.94,26.17 l -0.08,-209.48 c -21.87,-17.59 -53.9,-48.18 -75.34,-69.96 0.81,0.97 -90.48,-95.34 -130.58,-192.11 z m 353.09,-2457.68 c 191.93,199.3 564.83,248.62 921.69,-29.04 h -231.11 c -398.03,281.78 -712.83,5.92 -690.58,29.04 z m 0,0 c -191.82,199.3 -564.74,248.62 -921.59,-29.04 h 231.12 c 398.11,281.78 712.81,5.92 690.47,29.04 z m 710.13,-615.59 c -94.01,-94.17 -346.9,-168.25 -463.41,-121.07 50.51,164.66 317.22,148.17 463.41,121.07 z m -200.28,286.1 c -24.74,-135.07 -163.48,-321.26 -346.43,-344.56 27.07,183.13 211.28,322.86 346.43,344.56 z m 367.54,42.32 c -21.09,-84.3 -182.87,-294.69 -386.62,-276.04 36.94,171.82 268.14,282.5 386.62,276.04 z m 386.36,52.57 c -59.01,-142.42 -243.33,-351.39 -490.74,-365.56 53.53,250.03 291.36,360.71 490.74,365.56 z m -1158.62,111.92 h 46.89 l -46.37,-401.07 -49.95,0.54 c 0,-30.14 -25.2,-54.71 -55.51,-54.71 -30.42,0 -55.62,24.57 -55.62,54.71 l -49.77,-0.54 -46.37,401.07 h 46.83 l 29.06,-336.67 h 41.16 l -22.87,336.67 h 115.16 l -22.87,-336.67 h 41.14 z m -349.61,-613.98 c -116.58,-47.18 -369.59,26.9 -463.49,121.07 146.19,27.1 412.91,43.59 463.49,-121.07 z m 83.32,62.61 c -183.03,23.3 -321.78,209.49 -346.54,344.56 135.24,-21.7 319.36,-161.43 346.54,-344.56 z m -327.52,110.84 c -203.69,-18.65 -365.37,191.74 -386.54,276.04 118.55,6.46 349.76,-104.22 386.54,-276.04 z m -282.07,-36.95 c -247.53,14.17 -431.73,223.14 -490.84,365.56 199.38,-4.85 437.22,-115.53 490.84,-365.56 z m 770.03,571.12 -1459.33,-164.12 -0.55,-1.98 c 349.06,-412.55 870.49,-674.44 1452.98,-674.44 582.5,0 1099.27,264.57 1448.31,676.77 z m -2323.72,968.53 c 0,45.92 6.46,107.46 61.16,107.46 54.72,0 61.17,-61.54 61.17,-107.46 0,-42.06 -8.07,-100.21 -61.17,-100.21 -53.08,0 -61.16,58.15 -61.16,100.21 z m 112.29,-198.33 c 14.8,-23.85 14.71,-84.48 14.71,-112.63 0,-45.4 -10.58,-118.93 -67.26,-118.93 -60.81,0 -64.57,73.53 -64.57,120.53 0,39.46 -1.27,114.44 38.29,133.26 30.31,15.43 61.52,6.1 78.83,-22.23 z m 1744.99,2688.68 c 54.07,-174.69 25.37,-250.84 -71.21,-280.51 -94.09,-28.97 -161.7,17.29 -215.06,190.29 -54.53,176.42 -21.62,251.75 70.57,280.19 94.08,28.69 160.9,-12.38 215.7,-189.97 z m 2281.84,-851.46 153.9,50.32 -94.18,-127.43 z m 808.41,-2130.84 c 0,0 -85.37,10.03 -171.83,-2.87 l -0.45,1.79 c 18.93,30.85 293.81,508 293.81,508 0.81,2.88 -0.9,6.2 -3.22,6.47 -104.94,6.46 -157.77,1.26 -266.92,-7.8 -16.49,-5.11 -1.35,36.25 -4.3,76.95 -1.43,20.99 -0.62,40.35 -2.6,62.33 107.99,-10.67 375.42,-0.26 375.42,-0.26 l 16.86,-76.68 c -143.23,-233.23 -214.26,-481.65 -236.77,-567.93 z m -262.77,39.45 c -47,-34.43 -101.17,-48.79 -174.63,-48.79 -44.92,-0.35 -123.21,14.89 -155.05,66.55 -25.3,40.9 -32.65,69.24 -31.02,111.39 h 114.78 c 2.16,-64.22 9.77,-119.1 70.05,-118.92 73.44,0 103.58,65.48 103.58,140.09 0,33.54 1.89,72.29 -19.19,99.18 -19.19,22.97 -40.08,34.63 -81.53,34.63 -45.29,0 -73.44,-22.78 -95.51,-45.74 l -46.44,32.82 c 11.64,235.55 -14.19,327.22 -3.42,329.1 15.43,-0.36 207.62,-14.54 351.92,5.11 10.4,1.35 3.95,-50.85 3.95,-69.14 0,-19.19 12.74,-75.25 -5.65,-69.61 -112.38,20.72 -251.75,4.14 -251.75,4.14 l -5.56,-128.2 6.18,-3.05 c 28.79,15.41 77.76,19.36 110.32,19.36 34.99,0 91.22,-13.61 130.32,-54.15 40.89,-42.16 55.15,-87.9 55.15,-141.54 0,-65.11 -24.84,-125.73 -76.5,-163.23 z m -381.96,1405.58 c -15.89,41.43 -73.1,143.5 -94.07,173.72 l 431.01,234.6 c 0,0 -75.42,120.73 -79.02,125.85 9.61,1.89 77.5,39.82 83.95,45.91 l 241.33,-433.89 c -8.87,-2.07 -77.74,-38.3 -84.38,-45.19 -2.25,5.81 -62.33,134.7 -62.33,134.7 z m -178.2,308.25 c -18.48,23.76 -57.32,65.2 -77.23,88.07 35.6,57.75 58.48,94.35 99.01,156.06 l -77.49,99.9 c -68.07,-18.65 -118.38,-31.75 -177.22,-52.38 -9.5,13.54 -31.29,49.05 -41.53,62.06 -10.11,13.28 -48.6,55.34 -59.45,67.99 l 618.18,173.36 c 6.93,-11.76 44.22,-61.36 52.58,-72.02 8.24,-10.58 50.23,-63.42 59.91,-73.1 l -337.49,-537.84 c -17.04,24.94 -40.8,64.22 -59.27,87.9 z m -450.86,501.07 c -24.11,19.99 -49.95,38.11 -75.23,56.85 l 318.99,385.29 c -68.7,56.76 -74.16,53.53 -128.33,90.58 9.61,7.8 21.71,20.71 36.06,36.14 8.06,8.87 22.32,30.4 27.97,41.26 l 379.73,-314.36 c -9.69,-7.79 -25.76,-26.17 -33.36,-35.51 -8.17,-9.95 -24.94,-31.1 -30.76,-41.78 -53.29,51.75 -47.18,54.62 -106.27,103.58 L 4926.9,5104.26 c -23.05,21.43 -45.65,43.57 -69.87,63.4 z m -447.16,272.37 c -40.9,33.36 -92.55,85.82 -89.94,88.61 26,27.35 52.72,61.26 72.17,96.4 l 52.66,-29.05 c -26.37,-56.06 -1,-96.77 35.24,-116.86 46.72,-25.83 81.08,-11.49 103.15,19.82 78.72,112.38 -181.27,194.97 -80.82,375.69 47.72,86.28 169.34,111.82 283.32,48.52 54.08,-29.86 124.76,-107.17 132.46,-132.02 -22.25,-19.1 -59.73,-50.49 -81.34,-72.01 l -35.06,19.54 c 7.07,48.07 3.04,88.16 -39.83,111.94 -51.56,28.51 -94.35,-15.07 -100.53,-51.77 -16.15,-96.77 205.47,-192.17 88.24,-360.96 -61.97,-89.42 -215.51,-99.39 -339.72,2.15 z m -511.82,590.04 c 18.28,-96.34 259.08,-109.24 207.43,-308.17 -27.35,-105.46 -167.9,-167.89 -319.63,-115.42 -49.79,17.03 -116.41,48.44 -114.9,51.92 14.81,34.71 28.25,75.79 34.46,115.52 l 59.35,-9.24 c -5.37,-61.7 32.47,-91.11 73.64,-97.39 52.64,-7.98 79.91,17.22 89.86,54.34 35.07,132.74 -237.4,120.19 -205.91,324.66 15.06,97.4 120.36,163.42 249.23,143.5 60.99,-9.59 153.89,-57.49 169.96,-78.29 -14.44,-25.56 -38.4,-67.98 -51.3,-95.51 l -39.82,5.99 c -10.05,47.63 -27.81,83.86 -75.97,91.48 -58.47,8.9 -83.41,-46.89 -76.4,-83.39 z M 3450.61,5639.4 c -34.54,-1.09 -68.97,-4.67 -103.5,-7.44 l -16.95,588.49 c 34.62,-0.88 69.24,-0.26 103.76,0.82 34.53,0.91 68.98,2.41 103.41,5.11 l 17.03,-588.41 c -34.6,0.8 -69.22,2.23 -103.75,1.43 z m -461.16,-82.78 c -208.97,-64.58 -355.7,7.44 -412.99,193.37 -55.61,179.53 24.02,330.3 231.55,394.33 206.18,63.58 358.29,-15.52 412.91,-192.56 58.12,-188.15 -24.4,-331.2 -231.47,-395.14 z m -493.98,-177.13 c -93.54,28.96 -178.29,49.51 -262.06,75.42 l -120.18,41.61 157.4,-248.77 c -9.96,-4.94 -51.66,-33.82 -61.16,-39.47 -9.6,-5.82 -57.76,-44.03 -57.76,-44.03 -75.34,133.18 -95.34,160.97 -162.24,271.21 -47.62,78.55 -82.87,136.85 -147.27,227.35 l 119.28,72.28 c 173.01,-50.58 203.86,-61.79 378.92,-117.32 l -153.54,253.64 c 10.41,4.4 62.42,32.91 71.93,38.74 9.51,5.74 55.34,38.56 55.34,38.56 48.96,-96.04 103.94,-189.32 151.11,-266.09 41.08,-66.35 62.43,-104.3 144.94,-241.79 z m -520,-368.69 c -24.2,-24.75 -46.36,-51.3 -69.31,-77.21 l -421.52,410.82 c 25.37,23.42 50.13,47.55 74.34,72.21 23.95,24.76 47.45,50.22 70.22,76.13 l 421.61,-410.73 c -25.29,-23.61 -51.39,-46.48 -75.34,-71.22 z m -345.9,-423.77 -470.75,346.1 c 21.88,26.9 44.39,53.28 64.83,81.08 20.54,27.88 38.93,57.04 57.94,86 l 417.48,-307.07 c 71.13,96.84 48.79,76.5 99.55,155.86 8.06,-9.41 21.61,-19.2 31.3,-26.27 9.68,-7.1 31.66,-20.08 31.66,-20.08 -89.95,-100.54 -165.38,-203.96 -232.01,-315.62 z m -182.51,-421.59 -538.47,226.9 c 15.066,31.12 30.769,61.78 44.219,93.81 13.457,31.83 24.476,64.66 36.316,97.14 l 477.485,-201.18 c 46.72,110.76 29.59,85.82 60.54,174.7 9.95,-7.17 25.47,-13.54 36.59,-18.2 11.03,-4.57 35.51,-12.29 35.51,-12.29 -64.03,-118.65 -113.36,-236.85 -152.19,-360.88 z M 1242.67,2905.23 c -54.89,0 -113.64,11.3 -159.19,44.31 -43.59,32.3 -66.29,87.53 -66.29,141.34 0,78.55 52.02,168.43 132.57,181.52 v 6.82 c -61.53,12.19 -109.87,56.32 -109.87,119.77 0,111.93 105.2,184.3 201.88,184.3 53.09,0 96.68,-4.75 141.26,-34.88 40.8,-28.45 62.59,-89.7 62.59,-140.82 0,-70.25 -41.7,-110.27 -109.14,-128.37 v -6.82 c 94.34,-7.89 130.94,-90.58 130.94,-169.14 0,-122.34 -98.66,-198.03 -224.75,-198.03 z m -285.107,4.66 c -25.024,2.34 -60,2.53 -78.469,2.53 -18.481,0 -54.364,-0.56 -79.375,-2.53 v 500.04 c -40.813,-23.86 -68.164,-43.41 -98.293,-67.22 0,0 -38.391,51.43 -53.543,65.7 v 7.71 c 96.414,30.67 279.363,149.87 298.113,159.36 7.078,3.59 11.477,0.45 11.567,-4.91 0.359,-14.99 0,-660.68 0,-660.68 z M 831.109,4049.56 c 6.899,33.73 12.461,66.02 17.758,100.1 l 576.573,-118.58 c -8.78,-33.53 -18.12,-66.8 -25.11,-100.71 -6.99,-33.81 -11.38,-68.07 -16.68,-102.23 L 807.156,3946.6 c 8.699,33.45 17.043,69.05 23.953,102.96 z M 6187.5,3982.04 c -11.92,-1.35 -32.9,-3.85 -44.39,-6.84 -11.38,-2.87 -31.12,-10.48 -42.32,-15.06 -5.93,52.12 -6.73,83.33 -29.52,166.91 l -145.46,-36.41 16.24,-64.58 c 9.22,-37.04 21.05,-69.94 32.72,-99.45 -11.93,-1.35 -40.72,-5.92 -52.29,-8.7 -11.57,-2.96 -44.4,-13.74 -55.51,-18.22 -3.49,31.31 -8.61,66.11 -18.03,103.06 l -16.14,64.48 -161.7,-40.37 c 21.88,-83.93 29.32,-119.1 48.6,-167.61 -11.91,-1.34 -32.8,-3.95 -44.29,-6.74 -11.58,-2.94 -36.5,-11.92 -47.62,-16.4 l -93.29,372.02 561.18,140.53 z M 3501.28,6389.16 c -1596.38,0 -2890.534,-1294.15 -2890.534,-2890.71 0,-244.34 31.395,-481.1 88.426,-707.66 l 933.718,0.37 c -83.5,220.08 -130.4,458.47 -130.4,707.83 0,1103.55 894.59,1997.98 1997.99,1997.98 1103.29,0 1997.87,-894.43 1997.87,-1997.98 0,-249.36 -43.03,-487.75 -126.7,-708.2 l 930.75,0.55 c 56.76,226.35 89.59,463.11 89.59,707.11 0,1596.56 -1294.25,2890.71 -2890.71,2890.71 z m 435.5,-5192.77 c 9.51,-69.97 -22.23,-95.07 -60.16,-104.04 -34.28,185.66 -39.74,196.07 -30.42,198.02 12.03,1.81 53.18,5.92 74.09,-38.56 7.62,-16.15 14.71,-43.76 16.49,-55.42 z m 1838.19,771.28 -202.34,142.77 c -132.37,8.8 -255.43,11.67 -396.94,21.18 0,0 44.65,55.6 79.82,107.98 29.05,43.23 51.65,87.17 51.65,87.17 60.55,-6.1 191.19,-16.5 215.59,-19.38 l -116.3,166.47 c 10.39,12.38 35.07,52.72 44.66,66.71 8.89,13.45 37.65,59.01 45.2,73.18 61.25,-127.71 115.42,-217.39 171.19,-330.92 l 222.16,-144.94 c -15.51,-19.91 -46.9,-62.06 -60.89,-82.7 -14.19,-20.61 -41.26,-65.83 -53.8,-87.52 z m -385.48,-445.38 c -22.78,-21.34 -43.85,-45.02 -65.46,-67.61 l -343.31,363.58 c -64.94,-61.34 -62.44,-67.08 -105.83,-116.42 -6.38,10.6 -23.59,30.85 -32.38,40 -8.34,8.79 -26.46,26 -36.51,33.01 l 358.38,338.47 c 6.38,-10.4 25.83,-29.41 33.99,-38.21 8.98,-9.32 24.85,-27.62 34.99,-34.6 -58.12,-46.66 -60.01,-40.36 -115.79,-92.75 l 343.4,-363.58 c -23.96,-20.45 -48.61,-40.18 -71.48,-61.89 z m -385.81,-321.77 c -28.08,-19.92 -61.44,-40.91 -88.53,-62.25 l -340.62,480.17 c 29.15,18.67 58.84,38.39 86.9,58.66 28.25,19.72 54.89,39.63 82.16,61.16 l 340.53,-480.16 c -29.08,-18.68 -52.21,-37.5 -80.44,-57.58 z M 4511.21,929.832 C 4460.37,915.859 4387.9,904 4387,907.781 c -8.8,40.899 -21.25,75.328 -36.76,114.799 l 54.25,25.83 c 30.31,-53.808 78.11,-56.691 115.79,-38.75 47.9,22.98 56.31,59.37 43.39,95.61 -45.91,129.33 -263.85,-34.99 -353.18,151.74 -42.58,88.98 7.01,202.87 124.67,259.01 55.79,26.72 159.63,39.63 184.48,31.39 2.6,-29.23 6.64,-77.84 11.47,-107.81 l -36.13,-17.38 c -35.06,33.53 -70.32,53.62 -114.43,32.46 -53.1,-25.47 -42.35,-85.74 -15.89,-112.11 69.42,-68.87 275.6,56.33 345.2,-137.22 36.85,-102.24 -43.85,-233.159 -198.65,-275.518 z m -354.16,-105.09 c -29.42,-6.992 -109.77,-22.422 -139.18,-29.781 l -44.94,60.98 c -24.22,38.559 -35.6,62.071 -62.87,94.528 l -7.01,-1.25 30.69,-169.496 c -24.94,-2.512 -76.77,-9.532 -101.52,-14.012 -24.76,-4.652 -76.59,-16.492 -100.98,-22.582 l -105.22,578.991 195.78,35.71 c 46.47,8.24 118.4,23.14 163.42,12.19 60.98,-15.07 110.85,-55.78 121.26,-113.55 14.97,-82.69 -11.41,-152.82 -77.32,-182.77 69.16,-71.03 105.65,-122.149 179.2,-189.95 0,0 38.47,-34.258 35.32,-39.281 -3.05,-4.86 -45.64,-9.848 -86.63,-19.727 z m -612.98,406.438 c -51.66,7.54 -82.08,12.75 -168.71,12.2 l -2.24,-145.64 66.54,-0.9 c 38.22,-0.53 73.18,0 104.67,3.95 -1.89,-11.85 -3.5,-44.14 -3.77,-56.14 -0.09,-11.84 0.81,-43.05 2.34,-54.9 -31.5,4.672 -66.12,6.281 -104.31,6.832 l -66.63,0.879 -2.24,-164.481 c 86.63,-0.339 122.58,-2.148 174.52,4.141 -1.89,-12.019 -3.5,-34.801 -3.77,-47.012 -0.08,-11.636 0.9,-36.058 2.5,-47.886 l -383.57,5.218 7.71,578.449 378.11,-5.21 c -1.79,-12.01 -3.59,-32.63 -3.67,-44.83 -0.18,-11.66 0.97,-32.65 2.52,-44.67 z M 2706.85,841.051 c 0,0 -43.59,14.359 -54.97,17.929 -12.3,4.129 -54.62,19.399 -66.55,21.551 -11.92,212.359 -26.46,413.969 -36.32,631.009 23.13,-9.33 88.96,-31.75 112.55,-39.65 23.67,-7.69 80.1,-24.93 104.3,-31.2 -1.96,-155.15 -1.96,-182.59 1.89,-331.47 99.01,115.53 115.59,140.62 214.09,266.17 21.34,-7.35 63.12,-21.51 75.33,-25.28 12.27,-4.12 47.79,-16.33 65.54,-19.74 -141.25,-161.43 -264.82,-315.32 -415.86,-489.319 z M 2196.01,1039.8 c -27.98,20.45 -55.42,39.28 -84.3,58.47 -28.97,18.85 -59.19,37.85 -88.97,55.42 l 323.05,491.84 c 27.97,-20.46 60.98,-42.5 89.77,-61.35 28.97,-19.19 53.72,-34.97 83.58,-52.2 z m -434.79,351.39 c 3.95,97.74 1.88,184.91 5.47,272.46 l 9.24,127.17 -199.82,-216.32 c -7.44,8.24 -46,41.44 -53.99,49.14 -8.07,7.73 -62.14,48.98 -62.14,48.98 102.94,90.39 165.46,159.63 225.19,221.87 63.77,66.19 111.03,115.33 181.88,200.72 l 100.45,-96.51 c -4.48,-180.44 -7.18,-212.9 -15.79,-396.21 l 205.56,213.62 c 6.82,-9.14 47.89,-52.03 55.96,-60.1 7.89,-7.52 51.3,-43.22 51.3,-43.22 -80.09,-72.12 -156.22,-149.06 -218.02,-214.7 -53.64,-56.5 -111.66,-117.31 -190.31,-209.51 z m -472.36,560.52 c -54.27,27.09 -99.02,75.87 -130.14,129.31 -70.13,121.09 -88.43,222.07 -9.51,308.19 23.86,25.46 54.17,48.58 83.86,65.8 l 302.87,175.6 c 10.22,-21.15 38.02,-68.5 49.68,-88.78 11.75,-20.09 38.75,-67.44 52.11,-86.82 L 1424.1,2337.54 c -40.81,-23.51 -102.68,-57.4 -136.95,-86.99 -32.19,-28.54 -52.64,-39.83 -60.71,-84.31 -4.4,-24.77 -3.68,-38.75 12.01,-65.83 35.33,-60.82 83.32,-57.04 125.38,-45.39 45.47,18.3 119.37,64.22 155.87,85.39 l 221.43,136.13 c 4.67,-11.47 35.7,-64.75 41.71,-75.51 6.09,-10.4 27.98,-47.71 35.51,-57.57 l -264.21,-153 c -86.09,-46.84 -162.87,-92.38 -265.28,-38.75 z m 4037.4,730.22 C 5013.52,1986.7 4312.03,1501.14 3500.48,1501.14 c -812.83,0 -1512.72,485.36 -1824.82,1182.23 l -946.976,0.16 C 1080.25,1483.74 2187.58,607.691 3501.28,607.691 c 1313.25,0 2419.15,876.049 2771.15,2075.479 z m -1824.8,3822.66 c 1659.35,0 3004.79,-1345.53 3004.79,-3005.05 0,-1659.58 -1345.44,-3004.661 -3004.79,-3004.661 -1659.52,0 -3004.972,1345.081 -3004.972,3004.661 0,1659.52 1345.452,3005.05 3004.972,3005.05 m 0,300.52 C 1675.93,6805.11 196.055,5325.15 196.055,3499.8 196.055,1674.23 1675.93,194.43 3501.46,194.43 c 1825.43,0 3305.31,1479.8 3305.31,3305.37 0,1825.35 -1479.88,3305.31 -3305.31,3305.31" /><path
         id="path18"
         style="fill:#e51636;fill-opacity:1;fill-rule:nonzero;stroke:none"
         d="m 5868.1,545.582 c -56.09,0 -97.82,41.059 -97.82,98.207 0,57.66 41.73,98.68 97.82,98.68 55.38,0 97.91,-41.02 97.91,-98.68 0,-57.148 -42.53,-98.207 -97.91,-98.207 z m 0,227.238 c -71.83,0 -128.68,-57.418 -128.68,-129.031 0,-70.75 56.85,-128.648 128.68,-128.648 71.42,0 128.37,57.898 128.37,128.648 0,71.613 -56.95,129.031 -128.37,129.031 z m 14.29,-117.851 h -35.84 v 33.851 h 28.87 c 13.3,0 30.39,0 30.39,-13.621 0,-16.648 -8.38,-20.23 -23.42,-20.23 z m 51.26,16.371 c 0,35.332 -20.98,41.191 -51.78,41.191 h -65.2 V 578.59 h 29.88 v 56.5 h 21.02 l 29.86,-56.5 h 32.42 l -32.42,56.5 c 23.61,1.73 36.22,11.492 36.22,36.25" /></g></g></svg>