<?xml version="1.0" encoding="UTF-8" standalone="no"?>
<svg
   width="8"
   height="8"
   viewBox="0 0 8 8"
   version="1.1"
   id="svg4"
   sodipodi:docname="briefcase_dark_theme.svg"
   inkscape:version="1.1.2 (b8e25be833, 2022-02-05)"
   xmlns:inkscape="http://www.inkscape.org/namespaces/inkscape"
   xmlns:sodipodi="http://sodipodi.sourceforge.net/DTD/sodipodi-0.dtd"
   xmlns="http://www.w3.org/2000/svg"
   xmlns:svg="http://www.w3.org/2000/svg">
  <defs
     id="defs8" />
  <sodipodi:namedview
     id="namedview6"
     pagecolor="#505050"
     bordercolor="#eeeeee"
     borderopacity="1"
     inkscape:pageshadow="0"
     inkscape:pageopacity="0"
     inkscape:pagecheckerboard="0"
     showgrid="false"
     inkscape:zoom="109.125"
     inkscape:cx="3.9954181"
     inkscape:cy="3.9954181"
     inkscape:window-width="3840"
     inkscape:window-height="2066"
     inkscape:window-x="-11"
     inkscape:window-y="-11"
     inkscape:window-maximized="1"
     inkscape:current-layer="svg4" />
  <path
     d="M3 0c-.55 0-1 .45-1 1v1h-1.91c-.06 0-.09.04-.09.09v2.41c0 .28.22.5.5.5h7c.28 0 .5-.22.5-.5v-2.41c0-.06-.04-.09-.09-.09h-1.91v-1c0-.55-.45-1-1-1h-2zm0 1h2v1h-2v-1zm-3 4.91v2c0 .05.04.09.09.09h7.81c.05 0 .09-.04.09-.09v-2c-.16.06-.32.09-.5.09h-7c-.18 0-.34-.04-.5-.09z"
     id="path2"
     style="fill:#434343;fill-opacity:1" />
</svg>
